<svg width="16" height="16" viewBox="0 0 16 16" fill="none" xmlns="http://www.w3.org/2000/svg">
<path d="M5.64969 8.82667C5.64969 8.62624 5.48712 8.46387 5.28653 8.46387H4.01922C3.81885 8.46387 3.65625 8.62624 3.65625 8.82667V10.0938C3.65625 10.2945 3.81885 10.457 4.01922 10.457H5.28653C5.48712 10.457 5.64969 10.2945 5.64969 10.0938V8.82667Z" fill="#272727"/>
<path d="M8.82137 8.82667C8.82137 8.62624 8.65877 8.46387 8.45857 8.46387H7.19109C6.99073 8.46387 6.82812 8.62624 6.82812 8.82667V10.0938C6.82812 10.2945 6.99073 10.457 7.19109 10.457H8.45857C8.65877 10.457 8.82137 10.2945 8.82137 10.0938V8.82667Z" fill="#272727"/>
<path d="M11.9856 8.82667C11.9856 8.62624 11.823 8.46387 11.6227 8.46387H10.3554C10.1548 8.46387 9.99219 8.62624 9.99219 8.82667V10.0938C9.99219 10.2945 10.1548 10.457 10.3554 10.457H11.6227C11.823 10.457 11.9856 10.2945 11.9856 10.0938V8.82667Z" fill="#272727"/>
<path d="M5.64969 11.9948C5.64969 11.7941 5.48712 11.6318 5.28653 11.6318H4.01922C3.81885 11.6318 3.65625 11.7941 3.65625 11.9948V13.2618C3.65625 13.4623 3.81885 13.6247 4.01922 13.6247H5.28653C5.48712 13.6247 5.64969 13.4623 5.64969 13.2618V11.9948Z" fill="#272727"/>
<path d="M8.81747 11.9948C8.81747 11.7941 8.65486 11.6318 8.45466 11.6318H7.18719C6.98682 11.6318 6.82422 11.7941 6.82422 11.9948V13.2618C6.82422 13.4623 6.98682 13.6247 7.18719 13.6247H8.45466C8.65486 13.6247 8.81747 13.4623 8.81747 13.2618V11.9948Z" fill="#272727"/>
<path d="M11.9856 11.9948C11.9856 11.7941 11.823 11.6318 11.6228 11.6318H10.3554C10.1548 11.6318 9.99219 11.7941 9.99219 11.9948V13.2618C9.99219 13.4623 10.1548 13.6247 10.3554 13.6247H11.6228C11.823 13.6247 11.9856 13.4623 11.9856 13.2618V11.9948Z" fill="#272727"/>
<path d="M14.2527 1.78136V3.71683C14.2527 4.59163 13.543 5.2966 12.6683 5.2966H11.6689C10.7941 5.2966 10.0751 4.59163 10.0751 3.71683V1.77441H5.57023V3.71683C5.57023 4.59163 4.85118 5.2966 3.97656 5.2966H2.97691C2.10226 5.2966 1.39262 4.59163 1.39262 3.71683V1.78136C0.628165 1.8044 0 2.43696 0 3.21446V14.5572C0 15.3493 0.64203 15.9999 1.43414 15.9999H14.2111C15.0021 15.9999 15.6453 15.348 15.6453 14.5572V3.21446C15.6453 2.43696 15.0172 1.8044 14.2527 1.78136ZM13.7885 13.8509C13.7885 14.1932 13.5109 14.4709 13.1685 14.4709H2.4495C2.10705 14.4709 1.8295 14.1932 1.8295 13.8509V7.99192C1.8295 7.64947 2.10702 7.37175 2.4495 7.37175H13.1685C13.5109 7.37175 13.7885 7.64947 13.7885 7.99192L13.7885 13.8509Z" fill="#272727"/>
<path d="M2.97306 4.25917H3.96167C4.26174 4.25917 4.50504 4.01622 4.50504 3.71615V0.543208C4.50504 0.243105 4.26174 0 3.96167 0H2.97306C2.67296 0 2.42969 0.243105 2.42969 0.543208V3.71615C2.42969 4.01622 2.67296 4.25917 2.97306 4.25917Z" fill="#272727"/>
<path d="M11.6566 4.25917H12.6452C12.9451 4.25917 13.1884 4.01622 13.1884 3.71615V0.543208C13.1884 0.243105 12.9451 0 12.6452 0H11.6566C11.3566 0 11.1133 0.243105 11.1133 0.543208V3.71615C11.1133 4.01622 11.3566 4.25917 11.6566 4.25917Z" fill="#272727"/>
</svg>
