<svg width="10" height="10" viewBox="0 0 10 10" fill="none" xmlns="http://www.w3.org/2000/svg">
<path d="M5.91457 5L9.81037 1.1042C9.87071 1.04414 9.91853 0.972705 9.95107 0.894032C9.98361 0.815359 10.0002 0.731013 9.99995 0.645876C10.001 0.560935 9.98475 0.476669 9.95216 0.398225C9.91956 0.31978 9.87132 0.248804 9.81037 0.189631C9.7512 0.128683 9.68022 0.0804385 9.60177 0.0478428C9.52333 0.0152471 9.43906 -0.00101523 9.35412 4.90592e-05C9.26899 -0.000228532 9.18464 0.0163845 9.10597 0.0489264C9.0273 0.0814683 8.95586 0.129293 8.89579 0.189631L5 4.08543L1.1042 0.189631C1.04414 0.129293 0.972705 0.0814683 0.894032 0.0489264C0.815359 0.0163845 0.731013 -0.000228532 0.645876 4.90592e-05C0.560935 -0.00101523 0.476669 0.0152471 0.398225 0.0478428C0.31978 0.0804385 0.248804 0.128683 0.189631 0.189631C0.128683 0.248804 0.0804385 0.31978 0.0478428 0.398225C0.0152471 0.476669 -0.00101523 0.560935 4.90592e-05 0.645876C-0.000228532 0.731013 0.0163845 0.815359 0.0489264 0.894032C0.0814683 0.972705 0.129293 1.04414 0.189631 1.1042L4.08543 5L0.189631 8.89579C0.129293 8.95586 0.0814683 9.0273 0.0489264 9.10597C0.0163845 9.18464 -0.000228532 9.26899 4.90592e-05 9.35412C-0.00101523 9.43906 0.0152471 9.52333 0.0478428 9.60177C0.0804385 9.68022 0.128683 9.7512 0.189631 9.81037C0.248804 9.87132 0.31978 9.91956 0.398225 9.95216C0.476669 9.98475 0.560935 10.001 0.645876 9.99995C0.731013 10.0002 0.815359 9.98361 0.894032 9.95107C0.972705 9.91853 1.04414 9.87071 1.1042 9.81037L5 5.91457L8.89579 9.81037C8.95586 9.87071 9.0273 9.91853 9.10597 9.95107C9.18464 9.98361 9.26899 10.0002 9.35412 9.99995C9.52524 9.9994 9.68919 9.93118 9.81019 9.81019C9.93118 9.68919 9.9994 9.52524 9.99995 9.35412C10.0002 9.26899 9.98361 9.18464 9.95107 9.10597C9.91853 9.0273 9.87071 8.95586 9.81037 8.89579L5.91457 5Z" fill="#272727"/>
</svg>
