<svg width="22" height="22" viewBox="0 0 22 22" fill="none" xmlns="http://www.w3.org/2000/svg">
<path d="M13.3151 4.61623C13.1057 4.61623 12.9164 4.69468 12.7681 4.82001L12.7603 4.81224L6.07866 11.4709C5.32147 12.2279 5.01101 12.9665 5.00704 14.0208C5.00704 14.8454 5.31174 15.5872 5.86483 16.1096C6.43607 16.6488 7.2294 16.9339 8.15946 16.9337H8.17898C9.14707 16.9293 10.0529 16.5484 10.7289 15.8621L18.4818 8.111C20.4454 6.14717 20.497 3.34836 18.6044 1.4556C17.6657 0.516976 16.4159 0 15.0851 0C13.7544 0 12.505 0.516976 11.567 1.45567L1.85667 11.1646C-0.61889 13.6402 -0.61889 17.6684 1.85667 20.144C3.05395 21.341 4.64825 22 6.34587 22C8.04353 22 9.63795 21.341 10.8357 20.1439L20.8883 10.0557C20.8883 10.0557 21.1099 9.83794 21.1099 9.47062C21.1099 8.99999 20.7282 8.61836 20.2576 8.61836C20.034 8.61836 19.8319 8.70649 19.6798 8.84754L19.6772 8.84494L9.62446 18.9333C8.75007 19.8072 7.58566 20.2885 6.34569 20.2885C5.10572 20.2885 3.94149 19.8072 3.06743 18.9333C1.25952 17.1247 1.25952 14.1829 3.06743 12.3756L12.7778 2.66676C13.3931 2.05145 14.2125 1.71266 15.0851 1.71266C15.9578 1.71266 16.7778 2.0516 17.3936 2.66676C18.0077 3.28087 18.3164 4.0104 18.2865 4.77681C18.257 5.53107 17.9059 6.26531 17.271 6.90013L9.50188 14.6676C9.14671 15.0233 8.67449 15.22 8.17291 15.2212C7.21881 15.2212 6.71966 14.62 6.71966 14.027C6.72158 13.526 6.91808 13.0539 7.27325 12.6982L13.9712 6.02332L13.9635 6.01573C14.0889 5.86741 14.1673 5.67816 14.1673 5.46868C14.1674 4.99768 13.7858 4.61623 13.3151 4.61623Z" fill="#A6A6A6"/>
</svg>
