<svg width="26" height="24" viewBox="0 0 26 24" fill="none" xmlns="http://www.w3.org/2000/svg">
<path d="M3.99933 14.9606L12.0574 22.5303C12.305 22.763 12.4289 22.8793 12.5706 22.9215C12.687 22.9562 12.811 22.9562 12.9274 22.9215C13.0691 22.8793 13.193 22.763 13.4406 22.5303L21.4987 14.9606C23.7659 12.8308 24.0412 9.32601 22.1344 6.86831L21.7758 6.40619C19.4947 3.46608 14.9159 3.95916 13.313 7.31752C13.0866 7.79191 12.4114 7.79191 12.185 7.31752C10.5821 3.95916 6.0033 3.46608 3.72218 6.40619L3.36364 6.86831C1.4568 9.32601 1.73213 12.8308 3.99933 14.9606Z" stroke="#FAFAFA" stroke-width="1.25"/>
</svg>
