<svg width="30" height="30" viewBox="0 0 30 30" fill="none" xmlns="http://www.w3.org/2000/svg">
<path d="M18.75 12.5C18.75 16.6421 15.3921 20 11.25 20C9.77412 20 8.3978 19.5737 7.23747 18.8375L3.75 20L4.91249 16.5125C4.1763 15.3522 3.75 13.9759 3.75 12.5C3.75 8.35786 7.10786 5 11.25 5C15.3921 5 18.75 8.35786 18.75 12.5Z" stroke="#1D2437" stroke-width="1.5" stroke-linecap="round" stroke-linejoin="round"/>
<path d="M11.6724 19.987C12.6983 22.9068 15.4798 25 18.7502 25C20.2261 25 21.6024 24.5737 22.7627 23.8375L26.2502 25L25.0877 21.5125L25.2652 21.218C25.892 20.1222 26.2502 18.8529 26.2502 17.5C26.2502 13.3579 22.8923 10 18.7502 10L18.469 10.0052L18.3279 10.0127" stroke="#1D2437" stroke-width="1.5" stroke-linecap="round" stroke-linejoin="round"/>
</svg>
