<svg width="20" height="20" viewBox="0 0 20 20" fill="none" xmlns="http://www.w3.org/2000/svg">
<path fill-rule="evenodd" clip-rule="evenodd" d="M3.32879 8.88732C4.74809 10.4643 6.91457 12 9.99991 12C13.0853 12 15.2518 10.4643 16.6711 8.88732C17.3812 8.0983 17.8958 7.30702 18.2324 6.71295C18.4004 6.41658 18.523 6.17114 18.6026 6.00214C18.6425 5.91769 18.6715 5.85249 18.69 5.80976C18.6992 5.78839 18.7059 5.77266 18.7099 5.76295L18.714 5.75298L18.7145 5.75192C18.7144 5.75213 18.7143 5.75236 19.3333 5.99996C19.9523 6.24756 19.9521 6.24784 19.952 6.24815L19.9517 6.2489L19.9509 6.25087L19.9486 6.2566L19.9409 6.27521C19.9345 6.29074 19.9253 6.31244 19.9134 6.3399C19.8896 6.39482 19.8548 6.47285 19.8087 6.5707C19.7165 6.76628 19.5787 7.04167 19.3924 7.3703C19.0207 8.02624 18.452 8.90162 17.6621 9.77927C17.4183 10.0502 17.1526 10.3221 16.8644 10.5883L19.138 12.8619L18.1952 13.8047L15.8287 11.4382C14.485 12.4119 12.7766 13.1774 10.6666 13.3122L10.6666 16L9.33327 16L9.33325 13.3122C7.22321 13.1774 5.51487 12.4119 4.17111 11.4383L1.80467 13.8047L0.861863 12.8619L3.13548 10.5883C2.84729 10.3221 2.58157 10.0502 2.33773 9.77927C1.54785 8.90162 0.979109 8.02623 0.607415 7.3703C0.421193 7.04167 0.28339 6.76628 0.191186 6.5707C0.14506 6.47285 0.11027 6.39482 0.0864716 6.3399C0.0745704 6.31244 0.0654111 6.29074 0.0589511 6.27521L0.0512775 6.2566L0.0489473 6.25086L0.0481569 6.2489L0.0478551 6.24815C0.0477302 6.24784 0.0476156 6.24755 0.666601 5.99996C1.28559 5.75237 1.28549 5.75213 1.28541 5.75192L1.28529 5.75163L1.28584 5.75298L1.28996 5.76296C1.29399 5.77266 1.30062 5.7884 1.30988 5.80976C1.3284 5.8525 1.35741 5.91769 1.39722 6.00214C1.47689 6.17114 1.5995 6.41658 1.76745 6.71295C2.10408 7.30702 2.61867 8.0983 3.32879 8.88732ZM1.28523 5.75149C1.28521 5.75143 1.28523 5.75148 1.28529 5.75163L1.28523 5.75149Z" fill="#828282"/>
</svg>
