<svg width="20" height="18" viewBox="0 0 20 18" fill="none" xmlns="http://www.w3.org/2000/svg">
<path d="M18.8784 8.59L1.97713 0.143912C1.76891 0.0399583 1.53759 -0.00909921 1.30509 0.00138862C1.0726 0.0118765 0.846631 0.0815622 0.648612 0.203841C0.450593 0.32612 0.287081 0.496941 0.173572 0.700115C0.0600627 0.903288 0.000318061 1.13208 0 1.36481V6.43064C0.00118399 6.74399 0.109297 7.04754 0.306455 7.29109C0.503613 7.53464 0.778002 7.70358 1.08423 7.76999L6.55095 9L1.08423 10.23C0.778002 10.2964 0.503613 10.4654 0.306455 10.7089C0.109297 10.9525 0.00118399 11.256 0 11.5694V16.6352C0.000318061 16.8679 0.0600627 17.0967 0.173572 17.2999C0.287081 17.5031 0.450593 17.6739 0.648612 17.7962C0.846631 17.9184 1.0726 17.9881 1.30509 17.9986C1.53759 18.0091 1.76891 17.96 1.97713 17.8561L18.8784 9.45556C18.9696 9.4256 19.0489 9.36763 19.1052 9.28992C19.1614 9.21221 19.1917 9.11872 19.1917 9.02278C19.1917 8.92684 19.1614 8.83335 19.1052 8.75563C19.0489 8.67792 18.9696 8.61995 18.8784 8.59Z" fill="#D6D6D6"/>
</svg>
