<svg width="32" height="32" viewBox="0 0 32 32" fill="none" xmlns="http://www.w3.org/2000/svg">
<path d="M12.9872 6.93048C14.2639 3.64349 14.9023 2 16 2C17.0977 2 17.7361 3.6435 19.0128 6.93049L19.0723 7.08355C19.7935 8.94053 20.1542 9.86903 20.8892 10.4334C21.6242 10.9977 22.5891 11.087 24.5188 11.2654L24.8676 11.2977C28.0258 11.5898 29.6049 11.7359 29.9428 12.7734C30.2807 13.8109 29.108 14.9127 26.7626 17.1164L25.9798 17.8519C24.7925 18.9674 24.1989 19.5252 23.9222 20.2562C23.8706 20.3925 23.8277 20.5323 23.7937 20.6744C23.6119 21.4365 23.7857 22.2457 24.1334 23.864L24.2416 24.3677C24.8806 27.3418 25.2 28.8288 24.6422 29.4703C24.4338 29.7099 24.1629 29.8825 23.8619 29.9673C23.0566 30.1943 21.9131 29.2321 19.6263 27.3076C18.1247 26.044 17.3738 25.4122 16.5118 25.27C16.1728 25.2141 15.8272 25.2141 15.4882 25.27C14.6261 25.4122 13.8753 26.044 12.3737 27.3076C10.0869 29.2321 8.94345 30.1943 8.13807 29.9673C7.83713 29.8825 7.56622 29.7099 7.35778 29.4703C6.79996 28.8288 7.11944 27.3418 7.7584 24.3677L7.86662 23.864C8.2143 22.2457 8.38814 21.4365 8.20627 20.6744C8.17234 20.5323 8.12943 20.3925 8.07782 20.2562C7.80113 19.5252 7.20748 18.9674 6.02019 17.8519L5.23741 17.1164C2.89199 14.9127 1.71928 13.8109 2.05717 12.7734C2.39506 11.7359 3.97416 11.5898 7.13237 11.2977L7.48123 11.2654C9.41093 11.087 10.3758 10.9977 11.1108 10.4334C11.8458 9.86903 12.2065 8.94053 12.9277 7.08354L12.9872 6.93048Z" fill="#6666F1" stroke="#6666F1" stroke-width="3.3"/>
</svg>
