<svg width="50" height="50" viewBox="0 0 50 50" fill="none" xmlns="http://www.w3.org/2000/svg">
<path fill-rule="evenodd" clip-rule="evenodd" d="M0 0H12.8572C17.5912 0 21.4287 3.83788 21.4287 8.57148V12.8572C21.4287 14.9706 20.6639 16.9052 19.3961 18.3996C19.1783 18.3089 18.9638 18.2092 18.751 18.1054C18.431 17.9496 18.1136 17.7882 17.7962 17.6268C17.5252 17.489 17.2542 17.3513 16.9817 17.217C16.7643 17.1095 16.5373 17.0171 16.3248 16.9995L16.3254 17.001C16.0476 16.9936 15.9514 17.1286 16.0476 17.3495C16.1692 17.6286 16.315 17.8947 16.494 18.1423C16.5709 18.2486 16.648 18.3547 16.7252 18.4609L16.7252 18.461C16.9596 18.7835 17.1941 19.1062 17.4222 19.4333C17.5305 19.5884 17.6382 19.7439 17.7416 19.9019C16.3558 20.8645 14.6724 21.4287 12.8572 21.4287H8.57148C3.83745 21.4287 0 17.5913 0 12.8572V0ZM17.9105 30.2185C18.0806 29.9246 18.2374 29.6232 18.3716 29.3088C18.5611 28.8649 18.6193 28.4004 18.548 27.929C18.4571 27.3251 18.0736 26.9187 17.5728 26.6131C17.0341 26.2839 16.4397 26.0916 15.8316 25.9398C15.6089 25.884 15.386 25.8291 15.163 25.7741C14.7455 25.6711 14.3279 25.5681 13.9117 25.4602C13.6934 25.4036 13.4804 25.3226 13.2888 25.1988C13.071 25.0582 13.0697 24.8974 13.2893 24.7554C13.4371 24.6601 13.6058 24.6053 13.7725 24.5511L13.7904 24.5453C14.1762 24.4193 14.5715 24.3309 14.9667 24.2425C15.1388 24.204 15.3108 24.1655 15.4821 24.1239C16.0566 23.9842 16.6273 23.8345 17.1669 23.5882C17.5336 23.4213 17.8622 23.2039 18.1185 22.88C18.5145 22.3789 18.574 21.8259 18.3992 21.2345C18.256 20.75 18.0137 20.3176 17.7416 19.9019C18.3565 19.4748 18.9128 18.9692 19.3961 18.3996C19.8344 18.5821 20.2859 18.7278 20.7632 18.7952C21.5227 18.9026 22.1904 18.709 22.7507 18.1754C23.1436 17.8014 23.3873 17.3334 23.5893 16.8391C23.8664 16.1607 24.0315 15.4504 24.1967 14.7396L24.2018 14.7179C24.2297 14.5979 24.2565 14.4777 24.2834 14.3575L24.2835 14.3571C24.3834 13.9102 24.4833 13.4632 24.6353 13.0296C24.6905 12.8726 24.7634 12.7246 24.8703 12.5961C24.9791 12.4654 25.0963 12.4693 25.212 12.6C25.3604 12.7678 25.4403 12.9748 25.4985 13.1811C25.6352 13.6654 25.7524 14.1549 25.8677 14.6455C26.07 15.509 26.2805 16.3699 26.66 17.1766C26.9386 17.7683 27.3157 18.2799 27.8884 18.6276C28.1614 18.7932 28.4529 18.8976 28.7657 18.9326C29.3428 18.9969 29.9097 18.9326 30.4669 18.7657C30.5872 18.7297 30.7064 18.6909 30.8246 18.6498C31.3363 19.2076 31.9209 19.6974 32.5634 20.1042C32.3103 20.4463 32.0775 20.802 31.8933 21.1905C31.7342 21.526 31.6517 21.881 31.6944 22.2532C31.7484 22.7221 32.0024 23.0706 32.3737 23.3484C32.7201 23.6076 33.1125 23.774 33.5198 23.8945C33.9353 24.0174 34.3542 24.129 34.7732 24.2407L34.7734 24.2407C35.0672 24.319 35.3609 24.3973 35.6536 24.4794C35.8697 24.5397 36.087 24.6102 36.2694 24.7491C36.4364 24.8759 36.4316 24.9936 36.266 25.1226C36.1116 25.2429 35.9256 25.3002 35.7458 25.355C35.4204 25.4539 35.0892 25.5312 34.758 25.6085C34.6326 25.6378 34.5071 25.6671 34.382 25.6975L34.3091 25.7153L34.309 25.7153C33.8113 25.8365 33.3119 25.9581 32.8447 26.1792C32.5821 26.304 32.3473 26.4696 32.167 26.6973C31.8596 27.086 31.8263 27.519 31.9906 27.9767C32.1408 28.3942 32.4115 28.7328 32.6924 29.0662C32.8361 29.2369 32.9873 29.4002 33.1419 29.5603C32.4704 29.9154 31.8518 30.357 31.3008 30.8704C31.1963 30.8438 31.0912 30.8188 30.9858 30.7954C30.284 30.6397 29.5737 30.5776 28.8709 30.7716C28.3058 30.9277 27.8297 31.2417 27.4449 31.6894C26.9019 32.3221 26.5857 33.0679 26.3335 33.852C26.1644 34.3771 26.0346 34.9119 25.9048 35.4468L25.9048 35.4469C25.8259 35.7719 25.747 36.097 25.6594 36.4198C25.5907 36.6717 25.514 36.9206 25.407 37.1583L25.3985 37.1773L25.3888 37.1994C25.3246 37.3455 25.2551 37.5038 25.0637 37.5C24.8864 37.4965 24.8221 37.3455 24.7639 37.2088C24.7571 37.1928 24.7504 37.1771 24.7437 37.1619C24.578 36.7879 24.4905 36.389 24.4051 35.9909C24.3828 35.8871 24.3607 35.7833 24.3386 35.6795C24.1712 34.8916 24.0037 34.1036 23.7334 33.3429C23.5376 32.7912 23.2845 32.2702 22.8591 31.848C22.4063 31.399 21.868 31.2019 21.2322 31.23C20.681 31.2546 20.1797 31.4439 19.6867 31.6617C19.6284 31.6874 19.5704 31.7138 19.5126 31.7408C19.0466 31.1673 18.5079 30.6552 17.9105 30.2185ZM17.9105 30.2185C17.7285 30.533 17.5313 30.8389 17.3304 31.1428C17.2606 31.2485 17.1897 31.3536 17.1188 31.4587L17.1186 31.459L17.1185 31.4593L17.1183 31.4595C16.8881 31.8008 16.6578 32.1421 16.464 32.5066C16.3903 32.6445 16.3285 32.7873 16.285 32.9383C16.209 33.2009 16.3652 33.2656 16.5804 33.2458C16.6408 33.2398 16.7004 33.213 16.7587 33.1868L16.7588 33.1867C16.7729 33.1804 16.7869 33.1741 16.8008 33.1682C17.0962 33.0418 17.3839 32.8982 17.6656 32.7425C17.8355 32.6485 18.0042 32.5524 18.173 32.4564L18.1732 32.4563L18.1733 32.4562L18.1734 32.4562C18.6135 32.2057 19.0536 31.9553 19.5126 31.7408C20.7107 33.215 21.4287 35.0951 21.4287 37.1428V41.4286C21.4287 46.1622 17.5912 50.0001 12.8572 50.0001H0V37.1428C0 32.4088 3.83745 28.5713 8.57148 28.5713H12.8572C14.7468 28.5713 16.4936 29.1828 17.9105 30.2185ZM31.3008 30.8704C29.6215 32.4351 28.5713 34.6663 28.5713 37.1428V41.4286C28.5713 46.1622 32.4088 50 37.1428 50H50V37.1428C50 32.4088 46.1625 28.5713 41.4285 28.5713H37.1428C35.6977 28.5713 34.3363 28.9289 33.1419 29.5603C33.2633 29.686 33.3867 29.8097 33.5102 29.9334C33.6102 30.0336 33.7102 30.1338 33.8091 30.2351L33.8926 30.3204L33.8926 30.3204C34.1749 30.6086 34.4569 30.8967 34.7012 31.2194C34.7701 31.3104 34.8335 31.4026 34.8715 31.5088C34.953 31.7352 34.8513 31.8539 34.6089 31.8332C34.1542 31.7944 33.7255 31.6537 33.2999 31.5053L33.2229 31.4785L33.2229 31.4785C32.5878 31.2571 31.9525 31.0357 31.3008 30.8704ZM32.5634 20.1042C33.8881 20.9431 35.4587 21.4287 37.1428 21.4287H41.4285C46.1625 21.4287 50 17.5913 50 12.8572V0H37.1428C32.4088 0 28.5713 3.83788 28.5713 8.57148V12.8572C28.5713 15.0905 29.4253 17.1243 30.8246 18.6498C31.3536 18.4659 31.8642 18.2363 32.3749 18.0067L32.4489 17.9734L32.512 17.945C32.9425 17.7512 33.3729 17.5574 33.8266 17.4217C33.9094 17.3971 33.9948 17.3743 34.0806 17.3675C34.3015 17.3498 34.4002 17.4762 34.3321 17.6932C34.2902 17.826 34.2191 17.9463 34.1427 18.0637C33.8876 18.4546 33.5928 18.8149 33.2979 19.1753L33.2979 19.1753L33.2978 19.1754C33.2128 19.2794 33.1277 19.3833 33.0436 19.488C32.8803 19.6912 32.718 19.8952 32.5634 20.1042Z" fill="#FAFAFA"/>
</svg>
