<svg width="40" height="41" viewBox="0 0 40 41" fill="none" xmlns="http://www.w3.org/2000/svg">
<path fill-rule="evenodd" clip-rule="evenodd" d="M22.8571 6.91787C22.8571 3.09748 25.9271 0 29.7143 0H40.0001V10.3768C40.0001 14.1975 36.9301 17.2947 33.1429 17.2947H29.7143C28.367 17.2947 27.1105 16.9027 26.0507 16.2257C26.1744 16.057 26.3042 15.8924 26.4349 15.7284C26.5022 15.6439 26.5702 15.56 26.6383 15.4761C26.8742 15.1852 27.1101 14.8944 27.3141 14.5789C27.3753 14.4841 27.4322 14.387 27.4657 14.2798C27.5202 14.1047 27.4412 14.0027 27.2644 14.0169C27.1958 14.0224 27.1275 14.0409 27.0613 14.0607C26.6983 14.1702 26.3539 14.3266 26.0095 14.4831L25.9591 14.506L25.8999 14.5328L25.8999 14.5328C25.4913 14.7182 25.0829 14.9034 24.6597 15.0518C23.5403 13.8206 22.8571 12.1792 22.8571 10.3768V6.91787ZM15.5169 14.85C16.5312 13.6439 17.143 12.0825 17.143 10.3768V6.91791C17.143 3.09752 14.073 4.06901e-05 10.2858 4.06901e-05H0V10.3768C0 14.1976 3.06996 17.2947 6.85719 17.2947H10.2858C11.7379 17.2947 13.0847 16.8394 14.1933 16.0625C14.411 16.398 14.6048 16.7469 14.7193 17.1379C14.8592 17.6153 14.8116 18.0615 14.4948 18.466C14.2898 18.7274 14.0268 18.9028 13.7335 19.0375C13.3018 19.2364 12.8452 19.3571 12.3857 19.4699C12.2486 19.5035 12.111 19.5345 11.9733 19.5656C11.6572 19.637 11.3409 19.7084 11.0323 19.81L11.0179 19.8147C10.8846 19.8584 10.7496 19.9026 10.6314 19.9796C10.4557 20.0942 10.4568 20.2239 10.631 20.3375C10.7843 20.4373 10.9547 20.5027 11.1293 20.5484C11.4622 20.6355 11.7962 20.7186 12.1301 20.8017L12.1303 20.8017C12.3087 20.8461 12.4871 20.8905 12.6653 20.9355C13.1517 21.058 13.6272 21.2132 14.0583 21.4789C14.4589 21.7256 14.7656 22.0536 14.8384 22.5409C14.8954 22.9214 14.8488 23.2963 14.6973 23.6545C14.5899 23.9083 14.4645 24.1516 14.3284 24.3888C13.1949 23.5528 11.7975 23.0594 10.2858 23.0594H6.85719C3.06996 23.0594 0 26.1565 0 29.9772V40.354H10.2858C14.073 40.354 17.143 37.2566 17.143 33.4362V29.9772C17.143 28.3245 16.5685 26.8072 15.6101 25.6174C15.6563 25.5956 15.7027 25.5743 15.7494 25.5535C16.1438 25.3777 16.5448 25.225 16.9857 25.2051C17.4944 25.1825 17.925 25.3415 18.2873 25.7039C18.6276 26.0446 18.8301 26.4652 18.9867 26.9104C19.2029 27.5243 19.3369 28.1603 19.4709 28.7962L19.4709 28.7962L19.4709 28.7962L19.4709 28.7962C19.4886 28.88 19.5062 28.9638 19.5241 29.0475C19.5924 29.3688 19.6624 29.6908 19.7949 29.9926C19.8003 30.0049 19.8057 30.0176 19.8111 30.0304C19.8577 30.1408 19.9091 30.2626 20.0509 30.2655C20.2041 30.2686 20.2597 30.1408 20.311 30.0229L20.3256 29.9897C20.4111 29.7979 20.4726 29.597 20.5275 29.3937C20.5976 29.1331 20.6607 28.8708 20.7238 28.6084C20.8277 28.1767 20.9315 27.745 21.0668 27.3213C21.2685 26.6884 21.5215 26.0865 21.9559 25.5759C22.2637 25.2146 22.6447 24.9612 23.0967 24.8351C23.6589 24.6785 24.2272 24.7287 24.7886 24.8543C24.873 24.8732 24.957 24.8935 25.0407 24.9149C23.6972 26.1778 22.8571 27.9785 22.8571 29.9772V33.4362C22.8571 37.2566 25.9271 40.354 29.7143 40.354H40.0001V29.9772C40.0001 26.1565 36.9301 23.0594 33.1429 23.0594H29.7143C28.5582 23.0594 27.469 23.3479 26.5136 23.8576C26.3899 23.7284 26.2689 23.5965 26.1539 23.4587C25.9292 23.1897 25.7126 22.9164 25.5925 22.5795C25.461 22.21 25.4876 21.8605 25.7336 21.5469C25.8778 21.3631 26.0656 21.2294 26.2757 21.1287C26.6495 20.9502 27.049 20.8521 27.4472 20.7543L27.4473 20.7543L27.5056 20.7399C27.6055 20.7154 27.7058 20.6918 27.806 20.6682L27.8064 20.6681C28.0714 20.6057 28.3364 20.5433 28.5967 20.4635C28.7405 20.4193 28.8893 20.373 29.0128 20.2759C29.1453 20.1718 29.1491 20.0768 29.0156 19.9745C28.8696 19.8624 28.6958 19.8055 28.5228 19.7569C28.2887 19.6905 28.0536 19.6273 27.8185 19.5641L27.8185 19.5641C27.4833 19.4741 27.1482 19.384 26.8158 19.2848C26.49 19.1875 26.1761 19.0532 25.899 18.844C25.6019 18.6198 25.3987 18.3385 25.3555 17.9601C25.3214 17.6597 25.3874 17.3732 25.5146 17.1024C25.662 16.7889 25.8482 16.5018 26.0507 16.2257C25.5368 15.8974 25.0691 15.502 24.6597 15.0518C24.5651 15.085 24.4698 15.1163 24.3735 15.1454C23.9277 15.2801 23.4743 15.332 23.0126 15.2801C22.7623 15.2518 22.5291 15.1676 22.3107 15.034C21.8525 14.7533 21.5509 14.3405 21.328 13.8629C21.0244 13.2118 20.856 12.517 20.6942 11.8201C20.6019 11.4242 20.5082 11.0291 20.3988 10.6382C20.3522 10.4717 20.2883 10.3046 20.1696 10.1692C20.077 10.0637 19.9833 10.0606 19.8963 10.1661C19.8107 10.2698 19.7524 10.3892 19.7082 10.5159C19.5866 10.8659 19.5067 11.2267 19.4268 11.5874C19.4053 11.6845 19.3837 11.7816 19.3614 11.8785L19.3574 11.896C19.2252 12.4697 19.0931 13.0429 18.8714 13.5905C18.7099 13.9894 18.5149 14.3672 18.2006 14.669C17.7523 15.0996 17.2181 15.2559 16.6105 15.1692C16.2287 15.1148 15.8676 14.9973 15.5169 14.85ZM26.5136 23.8576C26.6107 23.959 26.7094 24.0588 26.8081 24.1586C26.8881 24.2395 26.9681 24.3204 27.0473 24.4021L27.1141 24.471C27.3399 24.7036 27.5656 24.9361 27.7609 25.1965C27.8161 25.27 27.8668 25.3444 27.8972 25.4301C27.9624 25.6128 27.8811 25.7086 27.6871 25.6919C27.3234 25.6606 26.9804 25.5471 26.6399 25.4273L26.5783 25.4057C26.0703 25.227 25.562 25.0483 25.0407 24.9149C25.4815 24.5006 25.9764 24.1441 26.5136 23.8576ZM15.6101 25.6174C15.2372 25.1545 14.8063 24.7412 14.3284 24.3888C14.1828 24.6426 14.025 24.8895 13.8643 25.1347C13.8083 25.2203 13.7515 25.3053 13.6946 25.3904C13.5104 25.6658 13.3262 25.9413 13.1712 26.2354C13.1122 26.3467 13.0628 26.462 13.028 26.5838C12.9672 26.7958 13.0921 26.848 13.2643 26.832C13.3126 26.8272 13.3603 26.8055 13.407 26.7844L13.4179 26.7794L13.4406 26.7694C13.6769 26.6674 13.9071 26.5515 14.1325 26.4258C14.2684 26.3499 14.4034 26.2724 14.5385 26.1948L14.5386 26.1948C14.8907 25.9926 15.2429 25.7905 15.6101 25.6174ZM15.5169 14.85C15.1303 15.3097 14.6852 15.7177 14.1933 16.0625C14.1105 15.9349 14.0244 15.8094 13.9378 15.6842C13.7552 15.4202 13.5676 15.1597 13.3801 14.8994C13.3184 14.8137 13.2567 14.728 13.1952 14.6423C13.052 14.4424 12.9354 14.2277 12.8381 14.0024C12.7611 13.8242 12.8381 13.7152 13.0603 13.7211L13.0598 13.72C13.2298 13.7342 13.4114 13.8088 13.5854 13.8955C13.8034 14.0039 14.0201 14.115 14.2369 14.2262L14.2369 14.2262L14.2369 14.2262L14.2369 14.2262L14.237 14.2263C14.491 14.3565 14.7449 14.4868 15.0008 14.6125C15.1711 14.6963 15.3427 14.7768 15.5169 14.85Z" fill="#6666F1"/>
</svg>
